<svg width="40" height="40" fill="none">
  <path fill="#093971" d="M6.43694 20.427c-.10869-.1166-.163-.2654-.163-.4143 0-.147.05312-.2946.15994-.4112l7.44162-8.1527c.227-.2489.6127-.2666.8618-.0391.249.227.2654.6131.039.8614l-6.47411 7.0931H33.125v1.2336H8.25831l6.57289 7.09c.2295.2458.2149.632-.0329.8614-.2465.2288-.6329.2141-.8618-.0329L6.43694 20.427z"/>
  <path fill="#093971" d="M20 40C8.95432 40 0 31.0457 0 20 0 8.95431 8.95432 0 20 0c11.0458 0 20 8.95431 20 20 0 11.0457-8.9542 20-20 20zm0-1.25c10.3388 0 18.75-8.4112 18.75-18.75C38.75 9.66125 30.3388 1.25 20 1.25 9.66119 1.25 1.25 9.66125 1.25 20c0 10.3388 8.41119 18.75 18.75 18.75z"/>
</svg>
