<svg width="40" height="41" fill="none">
  <path fill="#093971" d="M33.5631 20.9259c.1087-.1184.163-.2696.163-.4208 0-.1494-.0532-.2993-.16-.4178l-7.4416-8.2821c-.227-.2528-.6127-.2708-.8618-.0397-.249.2306-.2654.6229-.039.8751l6.4741 7.2057H6.875v1.2531h24.8667l-6.5729 7.2025c-.2295.2498-.2149.6421.0329.8752.2465.2323.6329.2175.8618-.0335l7.4996-8.2177z"/>
  <path fill="#093971" d="M20 40.8095c11.0457 0 20-9.0964 20-20.3174C40 9.27104 31.0457.174591 20 .174591 8.95425.174591 0 9.27104 0 20.4921c0 11.221 8.95425 20.3174 20 20.3174zm0-1.2698c-10.33881 0-18.75-8.5447-18.75-19.0476C1.25 9.98919 9.66119 1.44443 20 1.44443c10.3388 0 18.75 8.54476 18.75 19.04767 0 10.5029-8.4112 19.0476-18.75 19.0476z"/>
</svg>
