<svg width="32" height="32" fill="none">
  <path stroke="#093971" d="M31.5 16c0 8.5604-6.9396 15.5-15.5 15.5M31.5 16C31.5 7.43959 24.5604.5 16 .5M31.5 16C31.5 7.45286 24.5472.5 16 .5M31.5 16c0 8.5472-6.9528 15.5-15.5 15.5m0 0C7.43954 31.5.5 24.5604.5 16M16 31.5C7.45281 31.5.5 24.5472.5 16M16 .5C7.43954.5.5 7.43959.5 16M16 .5C7.45281.5.5 7.45286.5 16"/>
  <path stroke="#093971" stroke-width=".5" d="M6.42656 10.75l9.57364-6.44858L25.5739 10.75H6.42656z"/>
  <path stroke="#093971" stroke-width=".25" d="M7.875 12.125h16.25v-.25H7.875z"/>
  <path stroke="#093971" stroke-width=".25" d="M.125.125h7.56707v.542682H.125z" transform="matrix(0 -1 -1 0 8.93213 20.6282)"/>
  <path stroke="#093971" stroke-width=".25" d="M.125.125h7.56707v.542682H.125z" transform="matrix(0 -1 -1 0 13.9082 20.6282)"/>
  <path stroke="#093971" stroke-width=".25" d="M.125.125h7.56707v.542682H.125z" transform="matrix(0 -1 -1 0 23.8599 20.6282)"/>
  <path stroke="#093971" stroke-width=".25" d="M.125.125h7.56707v.542682H.125z" transform="matrix(0 -1 -1 0 18.8843 20.6282)"/>
</svg>
