<svg width="40" height="40" fill="none">
  <circle cx="20" cy="20" r="20" fill="#fff"/>
  <path fill="#093971" d="M20 0C8.95437 0 0 8.95431 0 20c0 11.0457 8.95437 20 20 20 11.0457 0 20-8.9543 20-20C40 8.95431 31.0457 0 20 0zm0 38.75C9.66125 38.75 1.25 30.3388 1.25 20 1.25 9.66125 9.66125 1.25 20 1.25c10.3388 0 18.75 8.41125 18.75 18.75 0 10.3388-8.4112 18.75-18.75 18.75z"/>
  <path fill="#093971" d="M26.5056 22.6567l.9734-3.6329c.7593-2.7651-.5911-5.0959-1.9783-6.2517-.3916-.3257-.8209-.6048-1.2692-.85l.0662-.2472c.2984-1.1136-.3552-2.25982-1.4569-2.55503-1.1017-.29521-2.2408.37062-2.5392 1.48423l-.0764.2852c-.4619-.0012-.9229.025-1.3755.1046-1.968.3463-4.2671 1.836-4.967 4.3842l-.9741 3.6353c-.6914 2.5803-2.1861 4.5526-4.44261 5.8624-.13448.0782-.21494.2251-.20882.3813.00622.1558.09863.2953.23916.3606l3.61537 1.6783c.6819.3165 1.3045.5903 1.8937.8356.3269 1.5691 1.4587 2.823 2.9557 3.2242 1.4974.4012 3.1051-.1196 4.1725-1.3155.63.0818 1.3028.1556 2.0479.2219l3.9697.3541c.1543.0141.3037-.0606.3875-.1928.0836-.1316.0875-.2995.0098-.4346-1.361-2.3695-1.7117-4.8364-1.0429-7.3322zm-5.4048-11.8384c.179-.6681.8626-1.06769 1.5235-.89058.661.17708 1.0532.86488.8742 1.53298l-.0209.078c-.7659-.3273-1.5793-.5383-2.4031-.6223l.0263-.0981zm-4.9286 5.6062c-.0008-.0003-.0016-.0005-.0024-.0007-.2202-.0607-.3493-.2901-.2884-.5128.5188-1.8879 2.3266-2.6854 3.3136-2.8587 1.7302-.3048 3.6261.2045 4.983 1.3344.1758.1462.2.4094.054.5881-.1462.1781-.4072.2043-.5832.0571-1.174-.9782-2.8184-1.4206-4.3155-1.1563-.7942.1396-2.2464.7718-2.6535 2.2545-.0613.2222-.2882.3531-.5076.2944zm3.9313 13.4688c-.8301.6703-1.9132.9255-2.9262.6541-1.0127-.2713-1.8226-1.0338-2.2066-2.0286l.0004.0001c.1523.0582.3006.1122.449.1658.0729.0265.1475.0551.2198.081.0536.0191.1056.0361.1585.0541 1.1384.3968 2.208.6839 3.3905.9111.0693.0134.1366.0275.2067.0407.0874.016.1785.0309.2678.0462.1403.0246.2797.0494.4242.0725.0057.0011.0106.002.0159.003z"/>
</svg>
