<svg width="40" height="40" fill="none">
  <path fill="#093971" d="M27.5 20h-15c-.3454 0-.625.2796-.625.625s.2796.625.625.625h15c.3455 0 .625-.2796.625-.625S27.8455 20 27.5 20zM27.5 25.625h-15c-.3454 0-.625.2796-.625.625s.2796.625.625.625h15c.3455 0 .625-.2796.625-.625s-.2795-.625-.625-.625zM27.5 14.375h-15c-.3454 0-.625.2796-.625.625s.2796.625.625.625h15c.3455 0 .625-.2796.625-.625s-.2795-.625-.625-.625z"/>
  <path fill="#093971" d="M20 0C8.95437 0 0 8.95425 0 20c0 11.0457 8.95437 20 20 20 11.0457 0 20-8.9543 20-20C40 8.95425 31.0457 0 20 0zm0 38.75C9.66125 38.75 1.25 30.3388 1.25 20 1.25 9.66119 9.66125 1.25 20 1.25c10.3388 0 18.75 8.41119 18.75 18.75 0 10.3388-8.4112 18.75-18.75 18.75z"/>
</svg>
