<svg width="16" height="16" fill="none">
  <path fill="#093971" d="M15.8047.195349c-.2604-.2604655-.6823-.2604655-.9427 0L8 7.05728 1.13802.195349c-.260405-.2604655-.682271-.2604655-.942671 0-.2604654.2604-.2604654.682267 0 .942671L7.05727 8.00001.195349 14.862c-.2604654.2604-.2604654.6823 0 .9427.130201.1302.300734.1953.471333.1953s.341128-.0651.471338-.1953L8 8.94274l6.862 6.86196c.1302.1302.3007.1953.4713.1953.1706 0 .3411-.0651.4714-.1953.2604-.2604.2604-.6823 0-.9427L8.94273 8.00001l6.86197-6.86199c.2604-.260404.2604-.682271 0-.942671z"/>
</svg>
