<svg width="26" height="25" viewBox="0 0 26 25" fill="none" xmlns="http://www.w3.org/2000/svg">
<path d="M24.6013 6.42695C24.3169 6.42695 24.0775 6.64919 24.0775 6.93436V18.0565C24.0775 20.838 21.7152 23.1102 18.8009 23.1102H7.20012C4.28583 23.1102 1.92359 20.838 1.92359 18.0565V6.93436C1.92359 4.15284 4.28583 1.88069 7.20012 1.88069H18.8009C19.0853 1.88069 19.3248 1.65844 19.3248 1.37328C19.3248 1.08809 19.0853 0.8659 18.8009 0.8659H7.20012C3.71792 0.8659 0.875885 3.58322 0.875885 6.93436V18.0565C0.875885 21.4076 3.71792 24.125 7.20012 24.125H18.8009C22.2832 24.125 25.1252 21.4076 25.1252 18.0565V6.93436C25.1252 6.64918 24.8857 6.42695 24.6013 6.42695Z" fill="#093971" stroke="#093971" stroke-width="0.25"/>
<path d="M1.39887 18.5639C1.68323 18.5639 1.92271 18.3417 1.92271 18.0565L1.92271 6.93441C1.9227 4.15289 4.28494 1.88074 7.19924 1.88074L18.8001 1.88074C21.7144 1.88074 24.0766 4.15289 24.0766 6.93441L24.0766 18.0565C24.0766 20.8381 21.7144 23.1102 18.8001 23.1102L7.19924 23.1102C6.91488 23.1102 6.67541 23.3325 6.67541 23.6176C6.67541 23.9028 6.9149 24.125 7.19924 24.125L18.8001 24.125C22.2823 24.125 25.1243 21.4077 25.1243 18.0565L25.1243 6.93441C25.1243 3.58327 22.2823 0.865912 18.8001 0.865912L7.19924 0.865913C3.71703 0.865913 0.875002 3.58327 0.875002 6.93441L0.875003 18.0565C0.875003 18.3417 1.11448 18.5639 1.39887 18.5639Z" fill="#093971" stroke="#093971" stroke-width="0.25"/>
</svg>
