<svg width="26" height="26" fill="none">
  <path fill="#093971" stroke="#093971" stroke-width=".25" d="M24.6011 6.67552c-.2893 0-.5238.23453-.5238.52388v11.6011c0 2.9094-2.3672 5.2767-5.2765 5.2767H7.20015c-2.90925 0-5.27648-2.3673-5.27648-5.2767V7.1994c0-2.9094 2.36723-5.27668 5.27648-5.27668H18.8008c.2894 0 .5239-.23453.5239-.52388 0-.28936-.2345-.52384-.5239-.52384H7.20015C3.71296.875.875977 3.71205.875977 7.1994v11.6011c0 3.4873 2.836973 6.3244 6.324173 6.3244H18.8008c3.4872 0 6.3242-2.8371 6.3242-6.3244V7.1994c0-.28935-.2345-.52388-.5239-.52388z"/>
  <path fill="#093971" stroke="#093971" stroke-width=".25" d="M1.39887 19.3245c.28938 0 .52383-.2346.52383-.5239V7.1995c0-2.90941 2.36723-5.27669 5.27647-5.27669H18.7999c2.9092 0 5.2764 2.36728 5.2764 5.27668V18.8006c0 2.9094-2.3672 5.2767-5.2764 5.2767H7.19917c-.28937 0-.52382.2345-.52382.5239 0 .2893.23446.5238.52382.5238H18.7999c3.4871 0 6.3241-2.8371 6.3241-6.3244V7.19949c0-3.48735-2.837-6.324446-6.3241-6.324446L7.19917.875045C3.71198.875046.875006 3.71214.875006 7.1995l.000001 11.6011c0 .2893.234453.5239.523863.5239z"/>
</svg>
