<svg width="26" height="27" fill="none">
  <path fill="#093971" stroke="#093971" stroke-width=".25" d="M7.46286 10.0255h.00002L13.045 20.2946 23.3354 1.1532c.1382-.257319.459-.353302.7149-.214934.2568.137844.3529.458204.2147.714644L13.5125 21.654h-.0001v.0002l-.1101-.0592c-.0699.1305-.2059.2117-.3539.2121L7.46286 10.0255zm0 0c-.13913-.25574-.45991-.35123-.71577-.21175-.25626.13922-.35096.45965-.2117.71555l.92747-.5038z"/>
  <path fill="#093971" stroke="#093971" stroke-width=".25" d="M24.6004 7.70882c-.2894 0-.5238.23452-.5238.52387V19.8335c0 2.9093-2.3673 5.2765-5.2765 5.2765H7.19924c-2.90928 0-5.27654-2.3672-5.27654-5.2765V8.23269c0-2.90932 2.36726-5.27654 5.27654-5.27654H18.8001c.2893 0 .5238-.23453.5238-.52387 0-.28936-.2345-.52383-.5238-.52383H7.19924C3.71202 1.90845.875 4.74542.875 8.23269V19.8335c0 3.4872 2.83701 6.3242 6.32424 6.3242H18.8001c3.4872 0 6.3242-2.837 6.3242-6.3242V8.23269c0-.28936-.2345-.52387-.5239-.52387z"/>
</svg>
