<svg width="26" height="26" viewBox="0 0 26 26" fill="none" xmlns="http://www.w3.org/2000/svg">
<path d="M23.7951 1.04449L23.8524 0.933427C23.6069 0.806601 23.2958 0.892258 23.1596 1.13439L13.2265 18.7695L7.83939 9.31063L7.83937 9.31059L7.20346 9.22345L7.14596 9.11246C7.1459 9.11249 7.14583 9.11253 7.14577 9.11256C6.89676 9.24169 6.79941 9.54422 6.93871 9.78861L12.7786 20.0426L12.7786 20.0426C12.8701 20.2032 13.0435 20.2998 13.229 20.2998H13.2293C13.4148 20.2993 13.5897 20.2022 13.6805 20.0405L24.0623 1.6085C24.2007 1.36352 24.1018 1.06092 23.852 0.933195L23.7951 1.04449ZM23.7951 1.04449C23.9844 1.14131 24.0553 1.36667 23.9535 1.54703L23.2685 1.19567C23.3704 1.01459 23.6068 0.947271 23.7951 1.04449Z" fill="#093971" stroke="#093971" stroke-width="0.25"/>
<path d="M24.6006 7.42688C24.3163 7.42688 24.0768 7.64913 24.0768 7.93429V19.0564C24.0768 21.8379 21.7146 24.1101 18.8003 24.1101H7.19945C4.28516 24.1101 1.92292 21.8379 1.92292 19.0564V7.93429C1.92292 5.15277 4.28516 2.88062 7.19945 2.88062H18.8003C19.0846 2.88062 19.3241 2.65838 19.3241 2.37321C19.3241 2.08803 19.0846 1.86584 18.8003 1.86584H7.19945C3.71725 1.86584 0.875214 4.58315 0.875214 7.93429V19.0564C0.875214 22.4076 3.71724 25.1249 7.19945 25.1249H18.8003C22.2825 25.1249 25.1245 22.4076 25.1245 19.0564V7.93429C25.1245 7.64912 24.885 7.42688 24.6006 7.42688Z" fill="#093971" stroke="#093971" stroke-width="0.25"/>
</svg>
