<svg width="120" height="96" fill="none">
  <rect width="69.5" height="79.5" x=".25" y="16.25" fill="#FBFBFB" stroke="#A2A2A2" stroke-width=".5" rx="3.75"/>
  <rect width="52.0536" height="59.5899" x="9.48062" y="26.4427" stroke="#A2A2A2" stroke-dasharray="4" stroke-width=".7" rx="3.65"/>
  <path fill="#A2A2A2" fill-rule="evenodd" d="M28.1371 46.2782h14.773c.8152 0 1.4772.696 1.4772 1.555v16.4155c0 .8561-.662 1.5536-1.4772 1.5536h-14.773c-.8152 0-1.4772-.6975-1.4772-1.5536V47.8332c0-.859.662-1.555 1.4772-1.555zm13.8874 1.1692H29.0214c-.7167 0-1.301.6104-1.301 1.3677v2.6798h15.6058v-2.6798c0-.7573-.5817-1.3677-1.3017-1.3677zM27.7204 63.2658V53.0089h9.6371v11.6246h-8.3361c-.7167 0-1.301-.6132-1.301-1.3677zm11.1072 1.3677h3.1969c.72 0 1.3017-.6132 1.3017-1.3677V53.0089h-4.4986v11.6246z" clip-rule="evenodd" opacity=".722769"/>
  <rect width="69.5" height="79.5" x="50.25" y=".25" fill="#FBFBFB" stroke="#A2A2A2" stroke-width=".5" rx="3.75"/>
  <path fill="#093971" fill-rule="evenodd" d="M63.5821 22.1052c1.731 0 3.1343-1.4138 3.1343-3.1579 0-1.744-1.4033-3.1579-3.1343-3.1579-1.7311 0-3.1343 1.4139-3.1343 3.1579 0 1.7441 1.4032 3.1579 3.1343 3.1579zM63.5821 35.7894c1.731 0 3.1343-1.4138 3.1343-3.1579 0-1.744-1.4033-3.1579-3.1343-3.1579-1.7311 0-3.1343 1.4139-3.1343 3.1579 0 1.7441 1.4032 3.1579 3.1343 3.1579zM63.5821 50.5263c1.731 0 3.1343-1.4138 3.1343-3.1579 0-1.7441-1.4033-3.1579-3.1343-3.1579-1.7311 0-3.1343 1.4138-3.1343 3.1579 0 1.7441 1.4032 3.1579 3.1343 3.1579zM63.5821 64.2103c1.731 0 3.1343-1.4139 3.1343-3.1579 0-1.7441-1.4033-3.1579-3.1343-3.1579-1.7311 0-3.1343 1.4138-3.1343 3.1579 0 1.744 1.4032 3.1579 3.1343 3.1579z" clip-rule="evenodd"/>
  <path fill="#A2A2A2" fill-rule="evenodd" d="M74.5522 19.4735h35.5228-35.5228z" clip-rule="evenodd"/>
  <path stroke="#A2A2A2" stroke-linecap="square" d="M74.5522 19.4735h35.5228"/>
  <path fill="#A2A2A2" fill-rule="evenodd" d="M74.5522 33.1579h35.5228-35.5228z" clip-rule="evenodd"/>
  <path stroke="#A2A2A2" stroke-linecap="square" d="M74.5522 33.1579h35.5228"/>
  <path fill="#A2A2A2" fill-rule="evenodd" d="M74.5522 47.8947h35.5228-35.5228z" clip-rule="evenodd"/>
  <path stroke="#A2A2A2" stroke-linecap="square" d="M74.5522 47.8947h35.5228"/>
  <path fill="#A2A2A2" fill-rule="evenodd" d="M74.5522 61.5789h35.5228-35.5228z" clip-rule="evenodd"/>
  <path stroke="#A2A2A2" stroke-linecap="square" d="M74.5522 61.5789h35.5228"/>
</svg>
