<svg width="32" height="32" fill="none">
  <mask id="a" fill="#fff">
    <path d="M16 32c8.8365 0 16-7.1635 16-16 0-8.83655-7.1635-16-16-16C7.1634 0 0 7.16345 0 16c0 8.8366 7.1634 16 16 16zm0-1C7.72895 31 1 24.271 1 16S7.72895 1 16 1c8.2711 0 15 6.729 15 15s-6.729 15-15 15z"/>
  </mask>
  <path fill="#A2A2A2" d="M16 32c8.8365 0 16-7.1635 16-16 0-8.83655-7.1635-16-16-16C7.1634 0 0 7.16345 0 16c0 8.8366 7.1634 16 16 16zm0-1C7.72895 31 1 24.271 1 16S7.72895 1 16 1c8.2711 0 15 6.729 15 15s-6.729 15-15 15z"/>
  <path fill="#A2A2A2" d="M16 33c9.3888 0 17-7.6112 17-17h-2c0 8.2843-6.7157 15-15 15v2zm17-17c0-9.38883-7.6112-17-17-17v2c8.2843 0 15 6.71574 15 15h2zM16-1C6.61111-1-1 6.61117-1 16h2C1 7.71573 7.71569 1 16 1v-2zM-1 16c0 9.3888 7.61111 17 17 17v-2C7.71569 31 1 24.2843 1 16h-2zm17 14C8.28123 30 2 23.7188 2 16H0c0 8.8233 7.17666 16 16 16v-2zM2 16C2 8.28128 8.28124 2 16 2V0C7.17666 0 0 7.17672 0 16h2zM16 2c7.7188 0 14 6.28128 14 14h2c0-8.82328-7.1767-16-16-16v2zm14 14c0 7.7188-6.2812 14-14 14v2c8.8233 0 16-7.1767 16-16h-2z" mask="url(#a)"/>
  <mask id="b" width="14" height="14" x="9" y="9" fill="#000" maskUnits="userSpaceOnUse">
    <path fill="#fff" d="M9 9h14v14H9z"/>
    <path d="M16 10c-4.9221 0-6 3.9077-6 5.4135C10 19.5993 12.0394 22 15.5958 22c2.9269 0 3.7242-.3897 3.8057-.4338.1623-.0889.2183-.2852.1304-.4442-.0879-.159-.2934-.2196-.4611-.1385-.0071.0036-.7526.352-3.475.352-4.271 0-4.9089-3.7101-4.9089-5.922 0-.0473.0606-4.749 5.3131-4.749 4.6229 0 5.3131 2.9756 5.3131 4.749 0 3.2057-.9568 3.5765-1.6766 3.5765-1.0316 0-1.2687-.3163-1.2727-.4494v-.7259c.0021-.0188.0028-.0376.0023-.0573-.0001-.0031-.0022-.0059-.0023-.009v-4.68c0-.1837-.1536-.3323-.3435-.3323-.1898 0-.3434.1486-.3434.3323l.0001.366c-.3144-.2711-.9836-.6983-2.0812-.6983-1.7094 0-2.7675 1.634-2.7675 3.1476 0 2.2429.931 3.3802 2.7675 3.3802 1.0236 0 1.7582-.4711 2.0811-.7247-.0027.0915.0143.3512.2569.6062.3213.3378.8941.5091 1.7027.5091C22 19.6545 22 16.5735 22 15.4135 22 13.7857 21.4154 10 16 10zm-.4042 8.5994c-1.4391 0-2.0807-.8374-2.0807-2.7157 0-1.0013.6614-2.4831 2.0807-2.4831 1.2118 0 1.7256.6236 1.7451.6476.0083.0114.0177.0221.0278.0321.0966.0971.3082.3706.3082.5516l.0004.0019.0007 3.016c-.0668.0636-.1818.164-.3073.2676-.007.0068-.7073.682-1.7749.682z"/>
  </mask>
  <path fill="#A2A2A2" d="M16 10c-4.9221 0-6 3.9077-6 5.4135C10 19.5993 12.0394 22 15.5958 22c2.9269 0 3.7242-.3897 3.8057-.4338.1623-.0889.2183-.2852.1304-.4442-.0879-.159-.2934-.2196-.4611-.1385-.0071.0036-.7526.352-3.475.352-4.271 0-4.9089-3.7101-4.9089-5.922 0-.0473.0606-4.749 5.3131-4.749 4.6229 0 5.3131 2.9756 5.3131 4.749 0 3.2057-.9568 3.5765-1.6766 3.5765-1.0316 0-1.2687-.3163-1.2727-.4494v-.7259c.0021-.0188.0028-.0376.0023-.0573-.0001-.0031-.0022-.0059-.0023-.009v-4.68c0-.1837-.1536-.3323-.3435-.3323-.1898 0-.3434.1486-.3434.3323l.0001.366c-.3144-.2711-.9836-.6983-2.0812-.6983-1.7094 0-2.7675 1.634-2.7675 3.1476 0 2.2429.931 3.3802 2.7675 3.3802 1.0236 0 1.7582-.4711 2.0811-.7247-.0027.0915.0143.3512.2569.6062.3213.3378.8941.5091 1.7027.5091C22 19.6545 22 16.5735 22 15.4135 22 13.7857 21.4154 10 16 10zm-.4042 8.5994c-1.4391 0-2.0807-.8374-2.0807-2.7157 0-1.0013.6614-2.4831 2.0807-2.4831 1.2118 0 1.7256.6236 1.7451.6476.0083.0114.0177.0221.0278.0321.0966.0971.3082.3706.3082.5516l.0004.0019.0007 3.016c-.0668.0636-.1818.164-.3073.2676-.007.0068-.7073.682-1.7749.682z"/>
  <path fill="#A2A2A2" d="M19.4015 21.5662l.119.2199.0011-.0006-.1201-.2193zm.1304-.4442l.2188-.1209-.2188.1209zm-.4611-.1385l-.1089-.2251-.0038.0019.1127.2232zm-.707-2.4429h-.2501l.0002.0076.2499-.0076zm0-.7259l-.2485-.0278-.0015.0138v.014h.25zm.0023-.0573l-.2499.0055v.0002l.2499-.0057zm-.0023-.009h-.2504l.0008.0137.2496-.0137zm-.6869-4.68h-.25.25zm.0001.366l-.1633.1893.4134.3565-.0001-.5458h-.25zm-.0001 5.1048l.2499.0074.0159-.5339-.4202.3299.1544.1966zm.2569.6062l-.1811.1723.1811-.1723zM22 15.4135h.25H22zm-4.6591-1.3653l.2014-.1485-.0073-.009-.1941.1575zm.0278.0321l.1771-.1764-.0003-.0003-.1768.1767zm.3082.5516h-.25v.0257l.0052.0251.2448-.0508zm.0004.0019l.25-.0001v-.0256l-.0052-.0251-.2448.0508zm.0007 3.016l.1723.1811.0778-.0739-.0001-.1073-.25.0001zm-.3073.2676l-.1591-.1929-.0079.0065-.0073.0071.1743.1793zM16 9.75c-2.5378 0-4.112 1.0124-5.0449 2.2409-.9231 1.2157-1.2051 2.6247-1.2051 3.4226h.5c0-.7078.2569-2.0056 1.1033-3.1202C12.1899 11.1915 13.6157 10.25 16 10.25v-.5zm-6.25 5.6635c0 2.1302.5187 3.8419 1.5237 5.0248 1.0101 1.1889 2.4841 1.8117 4.3221 1.8117v-.5c-1.7183 0-3.0422-.5775-3.941-1.6354-.9038-1.0638-1.4048-2.6454-1.4048-4.7011h-.5zm5.8458 6.8365c2.9407 0 3.7882-.39 3.9247-.4639l-.2381-.4397c-.0265.0143-.7734.4036-3.6866.4036v.5zm3.9258-.4645c.2833-.1552.3842-.5038.2291-.7844l-.4376.2419c.0207.0374.0095.0814-.0318.104l.2403.4385zm.2291-.7844c-.1559-.2821-.5088-.3781-.7888-.2426l.2177.45c.0554-.0267.1137-.0014.1335.0345l.4376-.2419zm-.7926-.2408c.046-.0232-.6519.3252-3.3623.3252v.5c2.7343 0 3.5276-.3485 3.5876-.3788l-.2253-.4464zm-3.3623.3252c-2.0458 0-3.1906-.8795-3.8395-2.0063-.6608-1.1476-.8194-2.5756-.8194-3.6657h-.5c0 1.1218.1603 2.6547.8862 3.9152.7378 1.2813 2.0475 2.2568 4.2727 2.2568v-.5zm-4.6589-5.672c0 .0017.0027-.2847.0868-.7139.0842-.4291.2484-.9939.5674-1.5548.6289-1.106 1.8758-2.2303 4.4089-2.2303v-.5c-2.7194 0-4.129 1.2266-4.8436 2.4832-.7028 1.236-.7195 2.4739-.7195 2.5158h.5zM16 10.9145c2.2537 0 3.5005.7221 4.1928 1.6129.7016.9027.8703 2.0249.8703 2.8861h.5c0-.9122-.1763-2.1646-.9755-3.193-.8086-1.0403-2.2184-1.806-4.5876-1.806v.5zm5.0631 4.499c0 1.5891-.2392 2.4213-.5263 2.8517-.1398.2095-.2909.3238-.4362.3884-.1481.0658-.3049.0864-.4641.0864v.5c.2007 0 .4335-.0257.6672-.1295.2365-.1052.4596-.284.649-.5678.3713-.5566.6104-1.5125.6104-3.1292h-.5zM19.6365 18.74c-.4943 0-.768-.0764-.9086-.1477-.1493-.0758-.1162-.1232-.1142-.0592l-.4998.0151c.0059.1971.1597.3743.3878.49.2368.1201.5975.2018 1.1348.2018v-.5zm-1.0227-.1994v-.7259h-.5v.7259h.5zm-.0016-.6982c.0035-.0313.0045-.0614.0038-.0907l-.4998.0114c.0002.0101-.0002.0176-.0009.0238l.4969.0555zm.0039-.0904c-.0007-.0279-.0057-.0501-.0095-.064-.002-.0069-.0039-.0126-.0051-.0162-.0012-.0035-.0023-.0063-.0024-.0066-.0005-.0012.0002.0006.0009.0025.0008.0023.0023.0065.0039.012.0032.0109.0081.0302.0095.055l-.4992.0274c.0014.0263.0066.0472.0103.0595.0018.0063.0036.0113.0046.0143.0006.0015.001.0027.0013.0035.0002.0004.0003.0007.0004.0009v.0002l.0001.0001c.0001.0004-.0007-.0017-.0016-.0044-.001-.0028-.0027-.0077-.0044-.014-.0034-.0123-.0082-.0331-.0087-.0593l.4999-.0109zm-.0023-.0036v-4.68h-.5v4.68h.5zm0-4.68c0-.3295-.2734-.5823-.5935-.5823v.5c.0597 0 .0935.0444.0935.0823h.5zm-.5935-.5823c-.32 0-.5934.2528-.5934.5823h.5c0-.0379.0338-.0823.0934-.0823v-.5zm-.5934.5823l.0001.366h.5l-.0001-.3661-.5.0001zm.4134.1767c-.3506-.3024-1.0759-.759-2.2445-.759v.5c1.0265 0 1.6398.3978 1.9179.6376l.3266-.3786zm-2.2445-.759c-1.8966 0-3.0175 1.8008-3.0175 3.3976h.5c0-1.4304.9953-2.8976 2.5175-2.8976v-.5zm-3.0175 3.3976c0 1.15.2377 2.0619.7516 2.6896.5216.637 1.2935.9406 2.2659.9406v-.5c-.864 0-1.4759-.2651-1.879-.7574-.4108-.5017-.6385-1.2798-.6385-2.3728h-.5zm3.0175 3.6302c1.1014 0 1.8895-.5064 2.2355-.7781l-.3088-.3932c-.2998.2354-.9809.6713-1.9267.6713v.5zm1.8313-.9821c-.0041.1353.0233.4682.3256.7859l.3622-.3446c-.183-.1923-.1895-.3788-.1881-.4265l-.4997-.0148zm.3256.7859c.3932.4134 1.0538.5868 1.8838.5868v-.5c-.7871 0-1.2722-.1693-1.5216-.4314l-.3622.3446zm1.8838.5868c.651 0 1.1555-.2144 1.536-.5659.3749-.3461.6145-.8112.77-1.2928.3093-.9583.3075-2.0573.3075-2.6323h-.5c0 .585-.0018 1.6065-.2833 2.4787-.14.4336-.3435.8114-.6334 1.0791-.2842.2625-.666.4332-1.1968.4332v.5zm2.6135-4.491c0-.8362-.1488-2.2512-1.0159-3.4627C20.3559 10.724 18.7733 9.75 16 9.75v.5c2.6421 0 4.0595.9189 4.8275 1.9919.779 1.0883.9225 2.3801.9225 3.1716h.5zm-6.6542 2.9359c-.669 0-1.103-.192-1.3815-.5556-.2902-.3786-.4492-.99-.4492-1.9101h-.5c0 .9582.1618 1.7046.5523 2.2142.402.5248 1.0084.7515 1.7784.7515v-.5zm-1.8307-2.4657c0-.4535.1519-1.0239.4638-1.4748.3074-.4446.7575-.7583 1.3669-.7583v-.5c-.8099 0-1.4001.4272-1.7782.9739-.3736.5403-.5525 1.2114-.5525 1.7592h.5zm1.8307-2.2331c1.1131 0 1.562.5688 1.551.5552l.3882-.3151c-.05-.0616-.6288-.7401-1.9392-.7401v.5zm1.5439.546c.0167.0227.0344.0428.0522.0605l.3536-.3535c-.0024-.0024-.0034-.0037-.0034-.0038l-.4024.2968zm.0518.0602c.0349.0349.1005.113.156.2011.0273.0434.049.0841.0632.1191.007.0172.0113.031.0138.0414.0025.0105.0024.0147.0024.0135h.5c0-.1672-.089-.3336-.1564-.4405-.0744-.1182-.1629-.2254-.2247-.2875l-.3543.3529zm.2406.4259l.0004.0018.4896-.1015-.0004-.0018-.4896.1015zm-.0048-.0489l.0007 3.016.5-.0001-.0007-3.016-.5.0001zm.0785 2.8348c-.0609.0579-.1708.1541-.2942.2559l.3182.3857c.1277-.1054.2476-.21.3205-.2793l-.3445-.3623zm-.3094.2695c.0056-.0054-.6338.6113-1.6006.6113v.5c1.1683 0 1.9296-.7337 1.9492-.7528l-.3486-.3585z" mask="url(#b)"/>
</svg>
