<svg width="36" height="41" fill="none">
  <path fill="url(#paint0_linear)" d="M18 40.0241c-.9565 0-1.913-.2621-2.7826-.7426L2.78261 32.0739C1.04348 31.0692 0 29.2345 0 27.2251V12.8099c0-2.0094 1.08695-3.84406 2.78261-4.84876L15.2174.753524c1.7391-1.004699 3.8696-1.004699 5.5652 0L33.2174 7.96114C34.9565 8.96584 36 10.8005 36 12.8099v14.4152c0 2.0094-1.087 3.8441-2.7826 4.8488l-12.4348 7.2076c-.8696.4805-1.8261.7426-2.7826.7426zM18 .884573c-.8261 0-1.6087.218417-2.3478.611557L3.21739 8.74743C1.78261 9.5774.869565 11.15.869565 12.8099v14.4152c0 1.66.913045 3.2326 2.347825 4.0625l12.43481 7.2076c1.4348.83 3.2174.83 4.6956 0l12.4348-7.2076c1.4348-.8299 2.3478-2.4025 2.3478-4.0625V12.8099c0-1.6599-.913-3.2325-2.3478-4.06247L20.3478 1.53981C19.6087 1.10299 18.7826.884573 18 .884573z"/>
  <path fill="url(#paint1_linear)" d="M18.1304 10.6694c.3913 0 .7391.131 1.0869.3058l5.9131 3.4509c.4348.2621.7391.6115.9565 1.0047L20.1304 4.29174c-1.3044-.78629-2.9565-.78629-4.2609 0L5.52167 10.2763l12.60873.3931z"/>
  <path fill="url(#paint2_linear)" d="M10.0427 15.2124c.2174-.3058.4782-.6116.8261-.7863l5.913-3.4509c.4348-.2621.8696-.3495 1.3478-.3058l-12.60866-.3932c-1.30435.7863-2.13044 2.1842-2.13044 3.7131v11.969l6.6522-10.7459z"/>
  <path fill="url(#paint3_linear)" d="M9.86946 24.5605c-.17392-.3495-.26086-.6989-.26086-1.0921v-6.8581c0-.4805.13043-.9611.3913-1.3542L3.34772 26.0457c0 1.5289.8261 2.9267 2.13044 3.713L15.826 35.7432 9.86946 24.5605z"/>
  <path fill="url(#paint4_linear)" d="M17.8695 29.3218c-.3913 0-.7391-.131-1.087-.3058l-5.913-3.4509c-.4348-.2621-.7391-.6115-.95654-1.0047l5.95654 11.1391c1.3043.7863 2.9565.7863 4.2609 0l10.3478-5.9845-12.6087-.3932z"/>
  <path fill="url(#paint5_linear)" d="M25.9565 24.7789c-.2174.3057-.4782.6115-.8261.7862l-5.913 3.451c-.4348.2621-.8696.3494-1.3478.3057l12.6087.3932c1.3043-.7863 2.1304-2.1841 2.1304-3.713V14.033l-6.6522 10.7459z"/>
  <path fill="url(#paint6_linear)" d="M26.0869 15.4745c.1739.3494.2609.6989.2609 1.092v6.8582c0 .4805-.1305.961-.3913 1.3542l6.6521-10.7896c0-1.5289-.826-2.9268-2.1304-3.713L20.1304 4.29175l5.9565 11.18275z"/>
  <defs>
    <linearGradient id="paint0_linear" x1="17.9888" x2="17.9888" y1=".683894" y2="40.3346" gradientUnits="userSpaceOnUse">
      <stop stop-color="#61C3E2"/>
      <stop offset=".2048" stop-color="#61C3E2"/>
      <stop offset=".876" stop-color="#134177"/>
    </linearGradient>
    <linearGradient id="paint1_linear" x1="7.61302" x2="26.4297" y1="4.79977" y2="13.7152" gradientUnits="userSpaceOnUse">
      <stop stop-color="#61C3E2"/>
      <stop offset=".2048" stop-color="#61C3E2"/>
      <stop offset=".876" stop-color="#134177"/>
    </linearGradient>
    <linearGradient id="paint2_linear" x1="-.314949" x2="16.8723" y1="21.4428" y2="9.66638" gradientUnits="userSpaceOnUse">
      <stop stop-color="#61C3E2"/>
      <stop offset=".2048" stop-color="#61C3E2"/>
      <stop offset=".876" stop-color="#134177"/>
    </linearGradient>
    <linearGradient id="paint3_linear" x1="10.0478" x2="8.38388" y1="36.643" y2="15.8088" gradientUnits="userSpaceOnUse">
      <stop stop-color="#61C3E2"/>
      <stop offset=".2048" stop-color="#61C3E2"/>
      <stop offset=".876" stop-color="#134177"/>
    </linearGradient>
    <linearGradient id="paint4_linear" x1="28.3647" x2="9.54796" y1="35.2057" y2="26.2903" gradientUnits="userSpaceOnUse">
      <stop stop-color="#61C3E2"/>
      <stop offset=".2048" stop-color="#61C3E2"/>
      <stop offset=".876" stop-color="#134177"/>
    </linearGradient>
    <linearGradient id="paint5_linear" x1="36.301" x2="19.1137" y1="18.5895" y2="30.3659" gradientUnits="userSpaceOnUse">
      <stop stop-color="#61C3E2"/>
      <stop offset=".2048" stop-color="#61C3E2"/>
      <stop offset=".876" stop-color="#134177"/>
    </linearGradient>
    <linearGradient id="paint6_linear" x1="25.9113" x2="27.5753" y1="3.3837" y2="24.218" gradientUnits="userSpaceOnUse">
      <stop stop-color="#61C3E2"/>
      <stop offset=".2048" stop-color="#61C3E2"/>
      <stop offset=".876" stop-color="#134177"/>
    </linearGradient>
  </defs>
</svg>
