<svg width="32" height="32" fill="none">
  <path fill="inherit" d="M16 32c8.8365 0 16-7.1635 16-16 0-8.83655-7.1635-16-16-16C7.1634 0 0 7.16345 0 16c0 8.8366 7.1634 16 16 16zm0-1C7.72895 31 1 24.271 1 16S7.72895 1 16 1c8.271 0 15 6.729 15 15s-6.729 15-15 15z"/>
  <path fill="inherit" d="M23.4829 13H9.01712C8.45629 13 8 13.4577 8 14.0202v3.1094c0 .5625.45629 1.0202 1.01712 1.0202h9.04108c.1338 0 .2422-.1088.2422-.2429 0-.1342-.1084-.2429-.2422-.2429H9.01712c-.29377 0-.53278-.2398-.53278-.5344v-3.1094c0-.2946.23901-.5344.53278-.5344H23.4829c.2938 0 .5328.2398.5328.5344v2.332c0 .1342.1084.2429.2421.2429.1338 0 .2422-.1087.2422-.2429v-2.332c0-.5625-.4563-1.0202-1.0171-1.0202z"/>
  <path fill="inherit" d="M23.4666 16.9266v-.3152c0-1.1341-.9199-2.0567-2.0504-2.0567-1.1306 0-2.0504.9226-2.0504 2.0567v.3152c-.3.1017-.5167.3864-.5167.7212v2.5911c0 .4197.3404.7611.7588.7611h3.6165c.4184 0 .7588-.3414.7588-.7611v-2.5911c0-.3348-.2167-.6195-.5166-.7212zm-2.0504-1.8861c.8635 0 1.566.7047 1.566 1.5709v.2753h-3.1321v-.2753c0-.8662.7025-1.5709 1.5661-1.5709zm2.0826 5.1984c0 .1518-.1231.2753-.2744.2753h-3.6165c-.1513 0-.2744-.1235-.2744-.2753v-2.5911c0-.1518.1231-.2753.2744-.2753h3.6165c.1513 0 .2744.1235.2744.2753v2.5911zM11.9301 14.9351c-.0669-.1162-.215-.156-.3308-.0889l-.5316.3078v-.6157c0-.1341-.1084-.2429-.2422-.2429-.1337 0-.2421.1088-.2421.2429v.6157l-.5316-.3078c-.11585-.0671-.26397-.0273-.33084.0889-.06687.1162-.02719.2647.08864.3318l.5316.3079-.5316.3078c-.11583.0671-.15551.2157-.08864.3318.04485.078.12625.1215.20995.1215.04107 0 .08269-.0105.12089-.0326l.5316-.3078v.6157c0 .1342.1084.2429.2421.2429.1338 0 .2422-.1087.2422-.2429v-.6157l.5316.3078c.0381.0221.0798.0326.1208.0326.0837 0 .1651-.0435.21-.1215.0669-.1161.0272-.2647-.0886-.3318l-.5316-.3078.5316-.3079c.1158-.0671.1555-.2156.0886-.3318zM15.0297 14.9351c-.0669-.1162-.215-.156-.3308-.0889l-.5316.3078v-.6157c0-.1341-.1084-.2429-.2422-.2429-.1337 0-.2421.1088-.2421.2429v.6157l-.5316-.3078c-.1158-.0671-.264-.0273-.3308.0889-.0669.1162-.0272.2647.0886.3318l.5316.3079-.5316.3078c-.1158.0671-.1555.2157-.0886.3318.0448.078.1262.1215.2099.1215.0411 0 .0827-.0105.1209-.0326l.5316-.3078v.6157c0 .1342.1084.2429.2421.2429.1338 0 .2422-.1087.2422-.2429v-.6157l.5316.3078c.0381.0221.0798.0326.1209.0326.0837 0 .1651-.0435.2099-.1215.0669-.1161.0272-.2647-.0886-.3318l-.5316-.3078.5316-.3079c.1158-.0671.1555-.2156.0886-.3318zM18.1298 14.9351c-.0669-.1162-.215-.156-.3308-.0889l-.5316.3078v-.6157c0-.1341-.1084-.2429-.2422-.2429-.1337 0-.2421.1088-.2421.2429v.6157l-.5316-.3078c-.1158-.0671-.264-.0273-.3308.0889-.0669.1162-.0272.2647.0886.3318l.5316.3079-.5316.3078c-.1158.0671-.1555.2157-.0886.3318.0448.078.1262.1215.2099.1215.0411 0 .0827-.0105.1209-.0326l.5316-.3078v.6157c0 .1342.1084.2429.2421.2429.1338 0 .2422-.1087.2422-.2429v-.6157l.5316.3078c.0381.0221.0798.0326.1209.0326.0836 0 .1651-.0435.2099-.1215.0669-.1161.0272-.2647-.0886-.3318l-.5316-.3078.5316-.3079c.1158-.0671.1555-.2156.0886-.3318z"/>
  <path fill="inherit" d="M21.416 17.9229c-.4184 0-.7588.3414-.7588.7611 0 .3348.2167.6195.5167.7212v.3152c0 .1342.1084.2429.2421.2429.1338 0 .2422-.1087.2422-.2429v-.3152c.3-.1017.5166-.3864.5166-.7212 0-.4197-.3404-.7611-.7588-.7611zm0 1.0364c-.1513 0-.2744-.1235-.2744-.2753s.1231-.2753.2744-.2753c.1514 0 .2745.1235.2745.2753s-.1231.2753-.2745.2753z"/>
</svg>
