<svg width="24" height="24" fill="none">
  <path fill="#093971" d="M12 0C5.37262 0 0 5.37259 0 12c0 6.6274 5.37262 12 12 12 6.6274 0 12-5.3726 12-12 0-6.62741-5.3726-12-12-12zm0 23.25C5.79675 23.25.75 18.2033.75 12 .75 5.79675 5.79675.75 12 .75 18.2033.75 23.25 5.79675 23.25 12c0 6.2033-5.0467 11.25-11.25 11.25z"/>
  <path fill="#093971" d="M12 10.6006c1.6569 0 3-1.51098 3-3.37495 0-1.86394-1.3431-3.375-3-3.375-1.6568 0-3 1.51106-3 3.375 0 1.86397 1.3432 3.37495 3 3.37495zm0-5.99995c1.2407 0 2.25 1.17757 2.25 2.625 0 1.44742-1.0093 2.625-2.25 2.625-1.2406 0-2.25-1.17758-2.25-2.625 0-1.44743 1.0094-2.625 2.25-2.625zM12 10.9756c-3.31372 0-6 2.7686-6 6.1838 0 .4521.04999.8917.13939 1.3162 1.48215 1.2201 3.67384 1.7646 5.82301 1.7646 2.3388 0 4.6274-.6445 5.8982-1.7646.0894-.4245.1394-.8641.1394-1.3162 0-3.4152-2.6863-6.1838-6-6.1838zm5.1739 7.0946c-1.1413.8804-3.1056 1.42-5.2115 1.42-2.04886 0-3.90226-.519-5.13815-1.4313-.04931-.3016-.07425-.6031-.07425-.8995 0-2.9962 2.35515-5.4338 5.25-5.4338 2.8949 0 5.25 2.4376 5.25 5.4338 0 .3001-.0255.6054-.0761.9108z"/>
</svg>
