<svg width="32" height="32" fill="none">
  <path fill="#fff" d="M16 32c8.8365 0 16-7.1635 16-16 0-8.83655-7.1635-16-16-16C7.1634 0 0 7.16345 0 16c0 8.8366 7.1634 16 16 16zm0-1C7.72895 31 1 24.271 1 16S7.72895 1 16 1c8.271 0 15 6.729 15 15s-6.729 15-15 15z"/>
  <path fill="#fff" fill-rule="evenodd" d="M20.9998 11h-1.7001c1.1818.7819 2.0484 1.9572 2.4458 3.3173.3974 1.3602.3 2.8171-.2749 4.1123-.5749 1.2952-1.5901 2.3447-2.8654 2.9623-1.2754.6177-2.7283.7634-4.1009.4114-1.3726-.352-2.5761-1.179-3.3968-2.3341-.8207-1.1552-1.20554-2.5638-1.0862-3.9758.1193-1.4119.7352-2.736 1.7381-3.737s2.3281-1.6143 3.7404-1.7309V11l.065.022c-1.1906.1041-2.3046.6309-3.1404 1.4851-.8358.8543-1.3382 1.9795-1.4163 3.1721-.0781 1.1925.2734 2.3736.9907 3.3295.7173.956 1.7531 1.6235 2.9199 1.8819 1.1668.2585 2.3876.0906 3.4414-.473 1.0538-.5637 1.8711-1.486 2.3038-2.6.4328-1.114.4525-2.3461.0555-3.4734-.3969-1.1273-1.1843-2.0752-2.2196-2.6722V13.5c0 .1326-.0527.2598-.1465.3536-.0937.0937-.2209.1464-.3535.1464-.1327 0-.2599-.0527-.3536-.1464-.0938-.0938-.1464-.221-.1464-.3536v-3c0-.1326.0526-.2598.1464-.3536.0937-.0937.2209-.1464.3536-.1464h3c.1326 0 .2598.0527.3535.1464.0938.0938.1465.221.1465.3536 0 .1326-.0527.2598-.1465.3536-.0937.0937-.2209.1464-.3535.1464z" clip-rule="evenodd"/>
</svg>
