<svg width="24" height="24" fill="none">
  <mask id="a" fill="#fff">
    <path d="M20.5696 15.2639c-.0186-.3339-.1833-.6396-.4518-.8388-.4345-.3225-1.0374-.2888-1.4335.08l-2.4088 2.2433c.0147-.4935-.3098-.9292-.7956-1.0524l-2.9419-.7467c-.5159-.131-1.0561-.1133-1.5624.0511l-2.03377.6603v-.5853c0-.1611-.13065-.2917-.29174-.2917H5.92431c-.16111 0-.29174.1307-.29174.2917v5.197c0 .1611.13065.2918.29174.2918h2.72581c.16111 0 .29174-.1307.29174-.2918v-3.9982l2.21394-.7188c.4014-.1304.8297-.1443 1.2386-.0406l2.942.7467c.2285.058.3773.2704.3539.505-.0242.2426-.2264.4256-.4702.4256h-2.0506c-.1611 0-.2918.1306-.2918.2917 0 .1611.1307.2917.2918.2917h.6285c.011.0013.0221.0021.0334.0021h1.4469c.4826 0 .9429-.1812 1.2961-.5101l2.5077-2.3354c.1901-.1771.4795-.1932.6881-.0384.1289.0956.2079.2423.2169.4026.0089.1603-.0534.3149-.1708.4243l-3.4546 3.2159c-.2383.2218-.5489.344-.8744.344h-4.5212c-.1611 0-.2918.1306-.2918.2917 0 .1611.1307.2918.2918.2918h4.5212c.4736 0 .9253-.1777 1.272-.5004l3.4545-3.2159c.2447-.2279.3744-.55.3558-.8838zM8.35837 19.9807H6.21606v-4.6135h2.14228v4.6135h.00003z"/>
  </mask>
  <path fill="#093971" d="M20.5696 15.2639c-.0186-.3339-.1833-.6396-.4518-.8388-.4345-.3225-1.0374-.2888-1.4335.08l-2.4088 2.2433c.0147-.4935-.3098-.9292-.7956-1.0524l-2.9419-.7467c-.5159-.131-1.0561-.1133-1.5624.0511l-2.03377.6603v-.5853c0-.1611-.13065-.2917-.29174-.2917H5.92431c-.16111 0-.29174.1307-.29174.2917v5.197c0 .1611.13065.2918.29174.2918h2.72581c.16111 0 .29174-.1307.29174-.2918v-3.9982l2.21394-.7188c.4014-.1304.8297-.1443 1.2386-.0406l2.942.7467c.2285.058.3773.2704.3539.505-.0242.2426-.2264.4256-.4702.4256h-2.0506c-.1611 0-.2918.1306-.2918.2917 0 .1611.1307.2917.2918.2917h.6285c.011.0013.0221.0021.0334.0021h1.4469c.4826 0 .9429-.1812 1.2961-.5101l2.5077-2.3354c.1901-.1771.4795-.1932.6881-.0384.1289.0956.2079.2423.2169.4026.0089.1603-.0534.3149-.1708.4243l-3.4546 3.2159c-.2383.2218-.5489.344-.8744.344h-4.5212c-.1611 0-.2918.1306-.2918.2917 0 .1611.1307.2918.2918.2918h4.5212c.4736 0 .9253-.1777 1.272-.5004l3.4545-3.2159c.2447-.2279.3744-.55.3558-.8838zM8.35837 19.9807H6.21606v-4.6135h2.14228v4.6135h.00003z"/>
  <path fill="#093971" d="M20.1178 14.4251l-.5959.803.0001.0001.5958-.8031zm-1.4335.08l-.6815-.7319v.0001l.6815.7318zm-2.4088 2.2433l-.9996-.0297-.0711 2.3934 1.7522-1.6319-.6815-.7318zm-.7956-1.0524l-.246.9692v.0001l.246-.9693zm-2.9419-.7467l-.2461.9692.0001.0001.246-.9693zm-1.5624.0511l.3088.9511-.3088-.9511zm-2.03377.6603h-1v1.376l1.3088-.4249-.3088-.9511zm.00003.6135l-.3088-.9512-.6912.2244v.7268h1zm2.21394-.7188l.3088.9511h.0001l-.3089-.9511zm1.2386-.0406l.2461-.9692-.0001-.0001-.246.9693zm2.942.7467l.246-.9693-.246.9693zm.3539.505l-.9951-.0994v.0001l.9951.0993zm-1.8923 1.009l.1136-.9935-.0566-.0065h-.057v1zm2.7764-.508l.6814.7319.0001-.0001-.6815-.7318zm2.5077-2.3354l.6815.7318.0001-.0001-.6816-.7317zm.6881-.0384l-.5958.8031h.0001l.5957-.8031zm.2169.4026l-.9985.0556v.0002l.9985-.0558zm-.1708.4243l.6813.7319.0001-.0001-.6814-.7318zm-3.4546 3.2159l.6813.732v-.0001l-.6813-.7319zm.3976.4271l.6813.732.0001-.0001-.6814-.7319zm3.4545-3.2159l.6814.7319-.6814-.7319zm-13.99774 3.833h-1v1h1v-1zm0-4.6135v-1h-1v1h1zm2.14228 0h1v-1h-1v1zm0 4.6135h-1v1h1v-1zM21.568 15.2082c-.0351-.6303-.3472-1.21-.8544-1.5863l-1.1916 1.6063c.0299.0222.0471.054.0491.0913l1.9969-.1113zm-.8543-1.5862c-.8218-.6098-1.9619-.5462-2.7109.1512l1.3631 1.4637c.0431-.0402.1088-.0438.156-.0088l1.1918-1.6061zm-2.7109.1513l-2.4088 2.2433 1.363 1.4636 2.4089-2.2433-1.3631-1.4636zm-.7277 3.0048c.0285-.9601-.6074-1.8124-1.5493-2.0514l-.4919 1.9386c.0187.0047.0275.0127.0325.0194.0054.0072.01.0175.0095.034l1.9992.0594zm-1.5492-2.0514L12.784 13.98l-.492 1.9386 2.9419.7466.492-1.9385zM12.784 13.98c-.6989-.1774-1.4315-.1534-2.1172.0693l.6176 1.9022c.3268-.1061.6746-.1175 1.0075-.033l.4921-1.9385zm-2.1172.0692l-2.03376.6603.61759 1.9023 2.03377-.6603-.6176-1.9023zm-.72497 1.6115v-.5853h-2v.5853h2zm0-.5853c0-.7134-.57844-1.2917-1.29174-1.2917v2c-.39113 0-.70826-.317-.70826-.7083h2zm-1.29174-1.2917H5.92431v2h2.72578v-2zm-2.72578 0c-.71346 0-1.29174.5784-1.29174 1.2917h2c0 .3912-.31703.7083-.70826.7083v-2zm-1.29174 1.2917v5.197h2v-5.197h-2zm0 5.197c0 .7135.57844 1.2918 1.29174 1.2918v-2c.39113 0 .70826.317.70826.7082h-2zm1.29174 1.2918h2.72581v-2H5.92431v2zm2.72581 0c.71346 0 1.29174-.5785 1.29174-1.2918h-2c0-.3911.31703-.7082.70826-.7082v2zm1.29174-1.2918v-3.9982h-2v3.9982h2zm-.6912-3.0471l2.21394-.7188-.6176-1.9022-2.21394.7187.6176 1.9023zm2.21404-.7188c.2217-.072.4577-.0798.6838-.0224l.4919-1.9386c-.5918-.1501-1.2125-.1299-1.7935.0588l.6178 1.9022zm.6837-.0224l2.942.7467.492-1.9386-2.9419-.7466-.4921 1.9385zm2.9419.7467c-.2512-.0638-.4208-.3058-.3951-.5637l1.9901.1988c.0726-.7271-.3947-1.3939-1.1029-1.5737l-.4921 1.9386zm-.3951-.5636c.0269-.2687.2549-.4751.5249-.4751v2c.7576 0 1.39-.5724 1.4652-1.3263l-1.9901-.1986zm.5249-.4751h-2.0506v2h2.0506v-2zm-2.0506 0c-.7135 0-1.2918.5784-1.2918 1.2917h2c0 .3911-.317.7083-.7082.7083v-2zm-1.2918 1.2917c0 .7135.5785 1.2917 1.2918 1.2917v-2c.3911 0 .7082.3171.7082.7083h-2zm1.2918 1.2917h.6285v-2h-.6285v2zm.5149-.0064c.0395.0045.0895.0085.147.0085v-2c.0349 0 .0627.0024.0802.0044l-.2272 1.9871zm.147.0085h1.4469v-2h-1.4469v2zm1.4469 0c.7356 0 1.4393-.277 1.9775-.7782l-1.3629-1.4637c-.1682.1566-.385.2419-.6146.2419v2zm1.9776-.7783l2.5077-2.3354-1.363-1.4636-2.5077 2.3354 1.363 1.4636zm2.5078-2.3355c-.163.1518-.4108.1654-.5893.033l1.1916-1.6063c-.5957-.4419-1.4223-.3961-1.9655.1098l1.3632 1.4635zm-.5892.033c-.1099-.0815-.1783-.2087-.1859-.3449l1.9969-.1112c-.0254-.4567-.2518-.8775-.6195-1.1502l-1.1915 1.6063zm-.1859-.3447c-.0076-.1366.0465-.2705.1462-.3633l1.3629 1.4636c.3347-.3116.5134-.7547.4878-1.2119l-1.9969.1116zm.1463-.3635l-3.4546 3.216 1.3627 1.4638 3.4546-3.2159-1.3627-1.4639zm-3.4546 3.2159c-.0532.0496-.1203.076-.193.076v2c.5783 0 1.1323-.2179 1.5557-.612l-1.3627-1.464zm-.193.076h-4.5212v2h4.5212v-2zm-4.5212 0c-.7135 0-1.29178.5784-1.29178 1.2917h1.99998c0 .3912-.317.7083-.7082.7083v-2zm-1.29178 1.2917c0 .7135.57848 1.2918 1.29178 1.2918v-2c.3911 0 .7082.317.7082.7082H9.67432zm1.29178 1.2918h4.5212v-2h-4.5212v2zm4.5212 0c.7264 0 1.4216-.2735 1.9533-.7684l-1.3626-1.464c-.1617.1504-.37.2324-.5907.2324v2zm1.9534-.7685l3.4545-3.2159-1.3628-1.4639-3.4545 3.2159 1.3628 1.4639zm3.4545-3.2159c.4621-.4302.708-1.0409.6728-1.6714l-1.9969.1113c.0021.0373-.0114.0708-.0387.0962l1.3628 1.4639zM8.35837 18.9807H6.21606v2h2.14231v-2zm-1.14231 1v-4.6135h-2v4.6135h2zm-1-3.6135h2.14228v-2H6.21606v2zm1.14228-1v4.6135h2v-4.6135h-2zm1 5.6135h.00003v-2h-.00003v2z" mask="url(#a)"/>
  <mask id="b" fill="#fff">
    <path d="M12 0C5.37259 0 0 5.37259 0 12c0 6.6274 5.37259 12 12 12 6.6274 0 12-5.3726 12-12 0-6.62741-5.3726-12-12-12zm0 23.25C5.79671 23.25.75 18.2033.75 12 .75 5.79675 5.79671.75 12 .75 18.2033.75 23.25 5.79675 23.25 12c0 6.2033-5.0467 11.25-11.25 11.25z"/>
  </mask>
  <path fill="#093971" d="M12 0C5.37259 0 0 5.37259 0 12c0 6.6274 5.37259 12 12 12 6.6274 0 12-5.3726 12-12 0-6.62741-5.3726-12-12-12zm0 23.25C5.79671 23.25.75 18.2033.75 12 .75 5.79675 5.79671.75 12 .75 18.2033.75 23.25 5.79675 23.25 12c0 6.2033-5.0467 11.25-11.25 11.25z"/>
  <path fill="#093971" d="M12-1C4.8203-1-1 4.8203-1 12h2C1 5.92487 5.92487 1 12 1v-2zM-1 12c0 7.1797 5.8203 13 13 13v-2C5.92487 23 1 18.0751 1 12h-2zm13 13c7.1797 0 13-5.8203 13-13h-2c0 6.0751-4.9249 11-11 11v2zm13-13c0-7.1797-5.8203-13-13-13v2c6.0751 0 11 4.92487 11 11h2zM12 22.25C6.349 22.25 1.75 17.651 1.75 12h-2c0 6.7556 5.49443 12.25 12.25 12.25v-2zM1.75 12C1.75 6.34903 6.349 1.75 12 1.75v-2C5.24443-.25-.25 5.24447-.25 12h2zM12 1.75c5.651 0 10.25 4.59903 10.25 10.25h2C24.25 5.24447 18.7555-.25 12-.25v2zM22.25 12c0 5.651-4.599 10.25-10.25 10.25v2c6.7555 0 12.25-5.4944 12.25-12.25h-2z" mask="url(#b)"/>
  <path fill="#093971" stroke="#093971" stroke-width=".25" d="M12.4898 13.3495c.3395 0 .6148-.2753.6148-.6148 0-.3396-.2753-.6148-.6148-.6148s-.6148.2752-.6148.6148c0 .3395.2753.6148.6148.6148zM13.4909 8.90586l-.0001.00001c-.343.15072-.4991.56161-.5597.98903-.0294.2074-.0344.4056-.0317.5534.0013.0737.0045.1344.0074.1769.0028.0411.0053.0647.0055.0662v.0001l-.1242.0142.1241-.0152c.0283.2312-.1477.4276-.3742.4522-.0002.0001-.0005.0001-.0007.0001l-.0133-.1243c-.0115.0014-.0229.0019-.0343.0019-.1507 0-.2805-.1063-.2978-.2507l1.299-1.86384zm0 0c1.3265-.58318 2.3076-1.87138 2.3076-3.08699 0-1.00549-.3194-1.82239-.919-2.38725-.5987-.56396-1.4618-.86271-2.5232-.86271-.9648 0-1.7607.28257-2.3163.80597m3.4509 5.53098L10.04 3.37488m0 0c-.55655.52422-.85885 1.27762-.85885 2.19219M10.04 3.37488l-.85885 2.19219m0 0c0 .23222.19733.40773.42515.40773m-.42515-.40773l.42515.40773m0 0c.22778 0 .4252-.1755.4252-.40773m-.4252.40773l.4252-.40773m0 0c0-.70757.2146-1.24825.6017-1.61286m-.6017 1.61286l.6017-1.61286m0 0c.3882-.36563.9662-.56984 1.7231-.56984m-1.7231.56984l1.7231-.56984m0 0c1.1507 0 1.7888.38824 2.1443.87049m-2.1443-.87049l2.1443.87049m0 0c.3609.48935.4476 1.09779.4476 1.56401m-.4476-1.56401l.4476 1.56401m0 0c0 .4298-.1885.9006-.5141 1.32535m.5141-1.32535l-.5141 1.32535m0 0c-.3249.4237-.78.79277-1.2977 1.02032l1.2977-1.02032z"/>
</svg>
