<svg width="16" height="16" fill="none">
  <path fill="#093971" fill-rule="evenodd" d="M14.6834 1.33432h-2.2693c1.5776 1.04324 2.7343 2.6115 3.2648 4.42636s.4005 3.75891-.3669 5.48702c-.7674 1.7282-2.1226 3.1286-3.8251 3.9527-1.7024.8241-3.64185 1.0186-5.47412.5489-1.83227-.4696-3.43879-1.5731-4.53434-3.1144C.382892 11.0935-.130871 9.21402.0284312 7.32999.187734 5.44596 1.00978 3.67929 2.3486 2.34361 3.68741 1.00793 5.45641.189648 7.34155.0340216V1.33432l.08677.02935c-1.58927.13888-3.07635.84183-4.19205 1.98166-1.1157 1.13982-1.78633 2.64121-1.89055 4.23245-.10422 1.59125.36492 3.16722 1.32242 4.44272.95751 1.2755 2.34018 2.1662 3.89777 2.511 1.5576.3449 3.18715.1209 4.59389-.6312 1.4067-.7521 2.4977-1.9827 3.0754-3.4692.5776-1.48642.6039-3.13046.074-4.63457-.5299-1.50411-1.581-2.76893-2.963-3.56556V4.6701c0 .17694-.0703.34664-.1954.47176-.1252.12511-.295.1954-.472.1954s-.3468-.07029-.472-.1954c-.1252-.12512-.1955-.29482-.1955-.47176V.667158c0-.176942.0703-.346636.1955-.471753C10.332.0702891 10.5018 0 10.6788 0h4.0046c.1771 0 .3469.0702891.472.195405.1252.125117.1955.294811.1955.471753 0 .176941-.0703.346632-.1955.471752-.1251.12512-.2949.19541-.472.19541z" clip-rule="evenodd"/>
</svg>
