<svg width="24" height="24" fill="none">
  <path fill="#093971" stroke="#093971" stroke-width=".25" d="M12 15.875c.6904 0 1.25-.5596 1.25-1.25 0-.6903-.5596-1.25-1.25-1.25-.6903 0-1.25.5597-1.25 1.25 0 .6904.5597 1.25 1.25 1.25zm0-2c.392 0 .7188.3322.7188.75s-.3268.75-.7188.75-.7188-.3322-.7188-.75.3268-.75.7188-.75zM9.68011 19.7587l.00941.0434.03468.0277c.586.4686 1.4398.6702 2.2617.6702.8921 0 1.7848-.2376 2.2931-.6729l.032-.0273.0089-.0412c.0353-.1627.0551-.3317.0551-.5059 0-1.313-1.0632-2.3777-2.375-2.3777s-2.375 1.0647-2.375 2.3777c0 .1742.01984.3432.05511.506zm4.16369-.506c0 .0858-.0064.1732-.019.261-.4047.2819-1.0898.4631-1.8389.4631-.7269 0-1.3752-.1737-1.8115-.4685-.0121-.086-.0182-.1715-.0182-.2556 0-1.0231.8279-1.8545 1.8438-1.8545 1.0159 0 1.8438.8314 1.8438 1.8545zM8.625 7.375c.69036 0 1.25-.55964 1.25-1.25 0-.69035-.55964-1.25-1.25-1.25-.69034 0-1.25.55965-1.25 1.25 0 .69036.55966 1.25 1.25 1.25zm0-2c.39197 0 .71875.33224.71875.75s-.32678.75-.71875.75c-.39196 0-.71875-.33224-.71875-.75s.32679-.75.71875-.75zM6.30511 11.3837l.00941.0434.03468.0277c.58603.4686 1.43979.6702 2.26171.6702.89206 0 1.78479-.2376 2.29309-.6729l.032-.0273.0089-.0412c.0353-.1627.0551-.3317.0551-.5059C11 9.56467 9.93682 8.5 8.625 8.5S6.25 9.56467 6.25 10.8777c0 .1742.01984.3432.05511.506zm4.16369-.506c0 .0858-.0064.1732-.019.261-.4047.2819-1.08984.4631-1.83889.4631-.72692 0-1.37517-.1737-1.81147-.4685-.01211-.086-.01819-.1715-.01819-.2556 0-1.0231.82786-1.85448 1.84375-1.85448 1.01591 0 1.8438.83138 1.8438 1.85448zM13.0551 11.3837l.0094.0434.0347.0277c.586.4686 1.4398.6702 2.2617.6702.8921 0 1.7848-.2376 2.2931-.6729l.032-.0273.0089-.0412c.0353-.1627.0551-.3317.0551-.5059 0-1.31303-1.0632-2.3777-2.375-2.3777S13 9.56467 13 10.8777c0 .1742.0198.3432.0551.506zm4.1637-.506c0 .0858-.0064.1732-.019.261-.4047.2819-1.0898.4631-1.8389.4631-.7269 0-1.3752-.1737-1.8115-.4685-.0121-.086-.0182-.1715-.0182-.2556 0-1.0231.8279-1.85448 1.8438-1.85448 1.0159 0 1.8438.83138 1.8438 1.85448zM15.375 7.375c.6904 0 1.25-.55964 1.25-1.25 0-.69035-.5596-1.25-1.25-1.25-.6903 0-1.25.55965-1.25 1.25 0 .69036.5597 1.25 1.25 1.25zm0-2c.392 0 .7188.33224.7188.75s-.3268.75-.7188.75-.7188-.33224-.7188-.75.3268-.75.7188-.75z"/>
  <path fill="#093971" d="M12 0C5.37262 0 0 5.37259 0 12c0 6.6274 5.37262 12 12 12 6.6274 0 12-5.3726 12-12 0-6.62741-5.3726-12-12-12zm0 23.25C5.79675 23.25.75 18.2033.75 12 .75 5.79675 5.79675.75 12 .75 18.2033.75 23.25 5.79675 23.25 12c0 6.2033-5.0467 11.25-11.25 11.25z"/>
</svg>
